<svg xmlns="http://www.w3.org/2000/svg" width="1080" height="1350" viewBox="0 0 1080 1350"><defs><radialGradient id="glow"><stop stop-color="#bc9aff" stop-opacity=".15"/><stop offset="1" stop-color="#bc9aff" stop-opacity="0"/></radialGradient></defs><rect width="1080" height="1350" fill="#101722"/><circle cx="970" cy="330" r="530" fill="url(#glow)"/><g transform="translate(810 92) scale(1.1)"><rect x="9" y="54" width="12" height="24" rx="6" fill="#1476b0"/><rect x="99" y="54" width="12" height="24" rx="6" fill="#1476b0"/><path d="M60 26V15" stroke="#1476b0" stroke-width="4"/><circle cx="60" cy="10" r="7" fill="#f5c55e"/><rect x="17" y="26" width="86" height="78" rx="28" fill="#1a91d6"/><rect x="28" y="42" width="64" height="50" rx="17" fill="#10263d"/><path d="M39 64q7-9 14 0m14 0q7-9 14 0M50 76q10 9 20 0" fill="none" stroke="#7fe3ff" stroke-width="5" stroke-linecap="round"/></g><text x="82" y="130" font-family="Nunito, Arial, sans-serif" font-weight="950" font-size="32" fill="#bc9aff"><tspan x="82" dy="0">INFORMATICA</tspan></text><text x="82" y="223" font-family="Nunito, Arial, sans-serif" font-weight="850" font-size="26" fill="#a3b3cb"><tspan x="82" dy="0">ЛОГИКА / ПРОВЕРЬ СЕБЯ</tspan></text><text x="82" y="355" font-family="Nunito, Arial, sans-serif" font-weight="850" font-size="82" fill="#f4f7fe"><tspan x="82" dy="0">Одно True.</tspan><tspan x="82" dy="90.2">Этого хватит?</tspan></text><rect x="82" y="625" width="916" height="370" rx="32" fill="#1c283a" stroke="#bc9aff" stroke-opacity=".35" stroke-width="3"/><text x="126" y="730" font-family="Nunito, Arial, sans-serif" font-weight="850" font-size="62" fill="#bc9aff"><tspan x="126" dy="0">True or</tspan><tspan x="126" dy="90">False and False</tspan></text><text x="126" y="932" font-family="Nunito, Arial, sans-serif" font-weight="850" font-size="58" fill="#b1bfd4"><tspan x="126" dy="0">True / False ?</tspan></text><text x="82" y="1168" font-family="Nunito, Arial, sans-serif" font-weight="850" font-size="40" fill="#a3b3cb"><tspan x="82" dy="0">Сначала and, затем or.</tspan><tspan x="82" dy="57">Сохрани порядок действий.</tspan></text><rect x="82" y="1270" width="916" height="6" rx="3" fill="#1c283a"/><rect x="82" y="1270" width="150" height="6" rx="3" fill="#bc9aff"/></svg>